<?xml version="1.0" encoding="UTF-8" standalone="no"?>
<!DOCTYPE svg PUBLIC "-//W3C//DTD SVG 1.1//EN"
 "http://www.w3.org/Graphics/SVG/1.1/DTD/svg11.dtd">
<!-- Generated by graphviz version 2.47.0 (20210316.0004)
 -->
<!-- Title: dependencies Pages: 1 -->
<svg width="504pt" height="284pt"
 viewBox="0.00 0.00 504.00 284.00" xmlns="http://www.w3.org/2000/svg" xmlns:xlink="http://www.w3.org/1999/xlink">
<g id="graph0" class="graph" transform="scale(1 1) rotate(0) translate(4 280)">
<title>dependencies</title>
<polygon fill="white" stroke="transparent" points="-4,4 -4,-280 500,-280 500,4 -4,4"/>
<text text-anchor="start" x="227.01" y="-42.4" font-family="Times-12" font-weight="bold" font-size="14.00">Legend</text>
<polygon fill="#ffffb3" stroke="transparent" points="14,-10 14,-30 34,-30 34,-10 14,-10"/>
<text text-anchor="start" x="37.63" y="-15.4" font-family="Times-12" font-size="14.00"> &#160;Declarations</text>
<polygon fill="#8dd3c7" stroke="transparent" points="127,-10 127,-30 147,-30 147,-10 127,-10"/>
<text text-anchor="start" x="150.73" y="-15.4" font-family="Times-12" font-size="14.00"> &#160;Module</text>
<polygon fill="#80b1d3" stroke="transparent" points="213,-10 213,-30 233,-30 233,-10 213,-10"/>
<text text-anchor="start" x="236.78" y="-15.4" font-family="Times-12" font-size="14.00"> &#160;Bootstrap</text>
<polygon fill="#fdb462" stroke="transparent" points="310,-10 310,-30 330,-30 330,-10 310,-10"/>
<text text-anchor="start" x="333.67" y="-15.4" font-family="Times-12" font-size="14.00"> &#160;Providers</text>
<polygon fill="#fb8072" stroke="transparent" points="406,-10 406,-30 426,-30 426,-10 406,-10"/>
<text text-anchor="start" x="429.73" y="-15.4" font-family="Times-12" font-size="14.00"> &#160;Exports</text>
<g id="clust1" class="cluster">
<title>cluster_WorkflowModule</title>
<polygon fill="none" stroke="black" stroke-dasharray="1,5" points="24,-70 24,-268 472,-268 472,-70 24,-70"/>
</g>
<g id="clust4" class="cluster">
<title>cluster_WorkflowModule_exports</title>
<polygon fill="none" stroke="black" points="63,-208 63,-260 392,-260 392,-208 63,-208"/>
</g>
<g id="clust6" class="cluster">
<title>cluster_WorkflowModule_providers</title>
<polygon fill="none" stroke="black" points="32,-78 32,-130 464,-130 464,-78 32,-78"/>
</g>
<!-- WorkflowExecutionService  -->
<g id="node1" class="node">
<title>WorkflowExecutionService </title>
<polygon fill="#fb8072" stroke="black" points="383.77,-252 208.23,-252 208.23,-216 383.77,-216 383.77,-252"/>
<text text-anchor="middle" x="296" y="-229.8" font-family="Times,serif" font-size="14.00">WorkflowExecutionService </text>
</g>
<!-- WorkflowService  -->
<g id="node2" class="node">
<title>WorkflowService </title>
<polygon fill="#fb8072" stroke="black" points="190.51,-252 71.49,-252 71.49,-216 190.51,-216 190.51,-252"/>
<text text-anchor="middle" x="131" y="-229.8" font-family="Times,serif" font-size="14.00">WorkflowService </text>
</g>
<!-- WorkflowModule -->
<g id="node3" class="node">
<title>WorkflowModule</title>
<polygon fill="#8dd3c7" stroke="black" points="219.58,-187 216.58,-191 195.58,-191 192.58,-187 102.42,-187 102.42,-151 219.58,-151 219.58,-187"/>
<text text-anchor="middle" x="161" y="-164.8" font-family="Times,serif" font-size="14.00">WorkflowModule</text>
</g>
<!-- WorkflowModule&#45;&gt;WorkflowExecutionService  -->
<g id="edge1" class="edge">
<title>WorkflowModule&#45;&gt;WorkflowExecutionService </title>
<path fill="none" stroke="black" stroke-dasharray="5,2" d="M213.83,-187.11C213.83,-187.11 213.83,-205.99 213.83,-205.99"/>
<polygon fill="black" stroke="black" points="210.33,-205.99 213.83,-215.99 217.33,-205.99 210.33,-205.99"/>
</g>
<!-- WorkflowModule&#45;&gt;WorkflowService  -->
<g id="edge2" class="edge">
<title>WorkflowModule&#45;&gt;WorkflowService </title>
<path fill="none" stroke="black" stroke-dasharray="5,2" d="M146.48,-187.11C146.48,-187.11 146.48,-205.99 146.48,-205.99"/>
<polygon fill="black" stroke="black" points="142.98,-205.99 146.48,-215.99 149.98,-205.99 142.98,-205.99"/>
</g>
<!-- WorkflowExecutionService -->
<g id="node4" class="node">
<title>WorkflowExecutionService</title>
<ellipse fill="#fdb462" stroke="black" cx="337" cy="-104" rx="118.66" ry="18"/>
<text text-anchor="middle" x="337" y="-99.8" font-family="Times,serif" font-size="14.00">WorkflowExecutionService</text>
</g>
<!-- WorkflowExecutionService&#45;&gt;WorkflowModule -->
<g id="edge3" class="edge">
<title>WorkflowExecutionService&#45;&gt;WorkflowModule</title>
<path fill="none" stroke="black" d="M218.13,-104C212.37,-104 208.92,-104 208.92,-104 208.92,-104 208.92,-140.89 208.92,-140.89"/>
<polygon fill="black" stroke="black" points="205.42,-140.89 208.92,-150.89 212.42,-140.89 205.42,-140.89"/>
</g>
<!-- WorkflowService -->
<g id="node5" class="node">
<title>WorkflowService</title>
<ellipse fill="#fdb462" stroke="black" cx="120" cy="-104" rx="79.85" ry="18"/>
<text text-anchor="middle" x="120" y="-99.8" font-family="Times,serif" font-size="14.00">WorkflowService</text>
</g>
<!-- WorkflowService&#45;&gt;WorkflowModule -->
<g id="edge4" class="edge">
<title>WorkflowService&#45;&gt;WorkflowModule</title>
<path fill="none" stroke="black" d="M151.07,-120.74C151.07,-120.74 151.07,-140.72 151.07,-140.72"/>
<polygon fill="black" stroke="black" points="147.57,-140.72 151.07,-150.72 154.57,-140.72 147.57,-140.72"/>
</g>
</g>
</svg>
