<?xml version="1.0" encoding="UTF-8" standalone="no"?>
<!DOCTYPE svg PUBLIC "-//W3C//DTD SVG 1.1//EN"
 "http://www.w3.org/Graphics/SVG/1.1/DTD/svg11.dtd">
<!-- Generated by graphviz version 2.47.0 (20210316.0004)
 -->
<!-- Title: dependencies Pages: 1 -->
<svg width="1105pt" height="222pt"
 viewBox="0.00 0.00 1105.00 222.00" xmlns="http://www.w3.org/2000/svg" xmlns:xlink="http://www.w3.org/1999/xlink">
<g id="graph0" class="graph" transform="scale(1 1) rotate(0) translate(4 218)">
<title>dependencies</title>
<polygon fill="white" stroke="transparent" points="-4,4 -4,-218 1101,-218 1101,4 -4,4"/>
<text text-anchor="start" x="527.51" y="-42.4" font-family="Times-12" font-weight="bold" font-size="14.00">Legend</text>
<polygon fill="#ffffb3" stroke="transparent" points="314.5,-10 314.5,-30 334.5,-30 334.5,-10 314.5,-10"/>
<text text-anchor="start" x="338.13" y="-15.4" font-family="Times-12" font-size="14.00"> &#160;Declarations</text>
<polygon fill="#8dd3c7" stroke="transparent" points="427.5,-10 427.5,-30 447.5,-30 447.5,-10 427.5,-10"/>
<text text-anchor="start" x="451.23" y="-15.4" font-family="Times-12" font-size="14.00"> &#160;Module</text>
<polygon fill="#80b1d3" stroke="transparent" points="513.5,-10 513.5,-30 533.5,-30 533.5,-10 513.5,-10"/>
<text text-anchor="start" x="537.28" y="-15.4" font-family="Times-12" font-size="14.00"> &#160;Bootstrap</text>
<polygon fill="#fdb462" stroke="transparent" points="610.5,-10 610.5,-30 630.5,-30 630.5,-10 610.5,-10"/>
<text text-anchor="start" x="634.17" y="-15.4" font-family="Times-12" font-size="14.00"> &#160;Providers</text>
<polygon fill="#fb8072" stroke="transparent" points="706.5,-10 706.5,-30 726.5,-30 726.5,-10 706.5,-10"/>
<text text-anchor="start" x="730.23" y="-15.4" font-family="Times-12" font-size="14.00"> &#160;Exports</text>
<g id="clust1" class="cluster">
<title>cluster_AppModule</title>
<polygon fill="none" stroke="black" stroke-dasharray="1,5" points="8,-70 8,-198 296,-198 296,-70 8,-70"/>
</g>
<g id="clust3" class="cluster">
<title>cluster_AppModule_imports</title>
<polygon fill="none" stroke="black" points="154,-78 154,-130 288,-130 288,-78 154,-78"/>
</g>
<g id="clust6" class="cluster">
<title>cluster_AppModule_providers</title>
<polygon fill="none" stroke="black" points="16,-78 16,-130 146,-130 146,-78 16,-78"/>
</g>
<g id="clust7" class="cluster">
<title>cluster_WorkflowModule</title>
<polygon fill="none" stroke="black" stroke-dasharray="1,5" points="304,-138 304,-206 1089,-206 1089,-138 304,-138"/>
</g>
<g id="clust10" class="cluster">
<title>cluster_WorkflowModule_exports</title>
<polygon fill="none" stroke="black" points="752,-146 752,-198 1081,-198 1081,-146 752,-146"/>
</g>
<g id="clust12" class="cluster">
<title>cluster_WorkflowModule_providers</title>
<polygon fill="none" stroke="black" points="312,-146 312,-198 744,-198 744,-146 312,-146"/>
</g>
<!-- WorkflowModule -->
<g id="node1" class="node">
<title>WorkflowModule</title>
<polygon fill="#8dd3c7" stroke="black" points="279.58,-122 276.58,-126 255.58,-126 252.58,-122 162.42,-122 162.42,-86 279.58,-86 279.58,-122"/>
<text text-anchor="middle" x="221" y="-99.8" font-family="Times,serif" font-size="14.00">WorkflowModule</text>
</g>
<!-- AppModule -->
<g id="node2" class="node">
<title>AppModule</title>
<polygon fill="#8dd3c7" stroke="black" points="192.66,-190 189.66,-194 168.66,-194 165.66,-190 109.34,-190 109.34,-154 192.66,-154 192.66,-190"/>
<text text-anchor="middle" x="151" y="-167.8" font-family="Times,serif" font-size="14.00">AppModule</text>
</g>
<!-- WorkflowModule&#45;&gt;AppModule -->
<g id="edge1" class="edge">
<title>WorkflowModule&#45;&gt;AppModule</title>
<path fill="none" stroke="black" d="M177.64,-122.22C177.64,-122.22 177.64,-143.73 177.64,-143.73"/>
<polygon fill="black" stroke="black" points="174.14,-143.73 177.64,-153.73 181.14,-143.73 174.14,-143.73"/>
</g>
<!-- WorkflowExecutionService  -->
<g id="node4" class="node">
<title>WorkflowExecutionService </title>
<polygon fill="#fb8072" stroke="black" points="1072.77,-190 897.23,-190 897.23,-154 1072.77,-154 1072.77,-190"/>
<text text-anchor="middle" x="985" y="-167.8" font-family="Times,serif" font-size="14.00">WorkflowExecutionService </text>
</g>
<!-- WorkflowModule&#45;&gt;WorkflowExecutionService  -->
<g id="edge3" class="edge">
<title>WorkflowModule&#45;&gt;WorkflowExecutionService </title>
<path fill="none" stroke="black" stroke-dasharray="5,2" d="M279.68,-95C458.58,-95 985,-95 985,-95 985,-95 985,-143.75 985,-143.75"/>
<polygon fill="black" stroke="black" points="981.5,-143.75 985,-153.75 988.5,-143.75 981.5,-143.75"/>
</g>
<!-- WorkflowService  -->
<g id="node5" class="node">
<title>WorkflowService </title>
<polygon fill="#fb8072" stroke="black" points="879.51,-190 760.49,-190 760.49,-154 879.51,-154 879.51,-190"/>
<text text-anchor="middle" x="820" y="-167.8" font-family="Times,serif" font-size="14.00">WorkflowService </text>
</g>
<!-- WorkflowModule&#45;&gt;WorkflowService  -->
<g id="edge4" class="edge">
<title>WorkflowModule&#45;&gt;WorkflowService </title>
<path fill="none" stroke="black" stroke-dasharray="5,2" d="M279.8,-104C430.72,-104 820,-104 820,-104 820,-104 820,-143.78 820,-143.78"/>
<polygon fill="black" stroke="black" points="816.5,-143.78 820,-153.78 823.5,-143.78 816.5,-143.78"/>
</g>
<!-- AppService -->
<g id="node3" class="node">
<title>AppService</title>
<ellipse fill="#fdb462" stroke="black" cx="81" cy="-104" rx="56.74" ry="18"/>
<text text-anchor="middle" x="81" y="-99.8" font-family="Times,serif" font-size="14.00">AppService</text>
</g>
<!-- AppService&#45;&gt;AppModule -->
<g id="edge2" class="edge">
<title>AppService&#45;&gt;AppModule</title>
<path fill="none" stroke="black" d="M123.4,-116.16C123.4,-116.16 123.4,-143.8 123.4,-143.8"/>
<polygon fill="black" stroke="black" points="119.9,-143.8 123.4,-153.8 126.9,-143.8 119.9,-143.8"/>
</g>
<!-- WorkflowExecutionService -->
<g id="node6" class="node">
<title>WorkflowExecutionService</title>
<ellipse fill="#fdb462" stroke="black" cx="617" cy="-172" rx="118.66" ry="18"/>
<text text-anchor="middle" x="617" y="-167.8" font-family="Times,serif" font-size="14.00">WorkflowExecutionService</text>
</g>
<!-- WorkflowExecutionService&#45;&gt;WorkflowModule -->
<g id="edge5" class="edge">
<title>WorkflowExecutionService&#45;&gt;WorkflowModule</title>
<path fill="none" stroke="black" d="M617,-153.98C617,-136.63 617,-113 617,-113 617,-113 289.86,-113 289.86,-113"/>
<polygon fill="black" stroke="black" points="289.86,-109.5 279.86,-113 289.86,-116.5 289.86,-109.5"/>
</g>
<!-- WorkflowService -->
<g id="node7" class="node">
<title>WorkflowService</title>
<ellipse fill="#fdb462" stroke="black" cx="400" cy="-172" rx="79.85" ry="18"/>
<text text-anchor="middle" x="400" y="-167.8" font-family="Times,serif" font-size="14.00">WorkflowService</text>
</g>
<!-- WorkflowService&#45;&gt;WorkflowModule -->
<g id="edge6" class="edge">
<title>WorkflowService&#45;&gt;WorkflowModule</title>
<path fill="none" stroke="black" d="M320.01,-172C278.43,-172 236.18,-172 236.18,-172 236.18,-172 236.18,-132.22 236.18,-132.22"/>
<polygon fill="black" stroke="black" points="239.68,-132.22 236.18,-122.22 232.68,-132.22 239.68,-132.22"/>
</g>
</g>
</svg>
